<svg width="127" height="55" viewBox="0 0 127 55" fill="none" xmlns="http://www.w3.org/2000/svg">
<path d="M16.8712 15.3419H54.2861C63.1372 15.3419 70.3349 22.5072 70.3349 31.3907V46.5966H15.2826C7.07982 46.5966 0.465759 39.9501 0.465759 31.7798C0.465759 22.7017 7.82552 15.3419 16.8712 15.3419Z" fill="#F9203B"/>
<path d="M110.635 22.4747H90.1447C81.1639 22.4747 73.9014 29.7372 73.9014 38.7181V53.8267C73.9014 53.9564 74.0311 54.0861 74.1607 54.0861H110.733C119.422 54.0861 126.457 47.0505 126.457 38.3615C126.49 29.5751 119.389 22.4747 110.635 22.4747Z" fill="#F9203B"/>
<path d="M86.2866 11.8404L84.1791 13.8181C81.6502 11.5161 78.2783 10.122 74.5823 10.122C71.0158 10.122 67.7412 11.4513 65.2123 13.5911L63.1373 11.5486C66.0553 8.56575 70.108 6.75012 74.5823 6.75012C79.1862 6.75012 83.3686 8.69543 86.2866 11.8404Z" fill="#F9203B"/>
<path d="M82.2338 15.6013L80.1264 17.579C78.6025 16.347 76.6572 15.6337 74.5822 15.6337C72.5396 15.6337 70.6592 16.3146 69.1678 17.4494L67.0928 15.4068C68.9732 13.4291 71.6318 12.197 74.5822 12.197C77.6299 12.197 80.3533 13.5263 82.2338 15.6013Z" fill="#F9203B"/>
<path d="M90.5986 7.78764L88.2967 9.95991C84.8924 6.29624 79.9967 3.99429 74.5822 3.99429C69.3299 3.99429 64.5638 6.16655 61.1595 9.63569L58.89 7.43101C62.8779 3.34585 68.422 0.849365 74.5498 0.849365C80.9045 0.849365 86.6107 3.50796 90.5986 7.78764Z" fill="#F9203B"/>
<path d="M78.3108 19.265L74.5498 22.7666L70.9186 19.2002C71.9561 18.4869 73.2205 18.0654 74.5498 18.0654C75.9764 18.0654 77.2733 18.5193 78.3108 19.265Z" fill="#F9203B"/>
<path d="M89.788 31.5205L89.8204 34.4385H92.706V37.0971H89.8204V41.1174C89.8204 42.5115 90.1446 43.7111 91.3118 43.7111C91.7982 43.7111 92.2521 43.6139 92.7708 43.2248L93.5489 45.9158C93.0302 46.1103 91.3442 46.4994 90.2743 46.4994C89.0423 46.4994 88.0048 45.851 87.3888 45.2674C86.6755 44.5865 86.3188 43.4842 86.3188 41.8307V37.0971H84.5356V34.4385H86.3188V31.5205H89.788Z" fill="white"/>
<path d="M97.9583 41.1498C98.088 42.7061 99.6118 43.7112 101.492 43.7112C102.886 43.7112 103.729 43.4842 104.572 42.4791L106.031 44.4568C104.994 46.2401 102.627 46.7264 100.909 46.4994C96.9208 46.0131 94.8782 44.1651 94.5216 40.3393C94.2298 37.2916 96.5642 33.6604 101.071 33.8873C103.34 33.9846 107.069 35.6057 107.036 39.4639C107.036 40.1123 107.101 40.9877 107.036 41.2471L97.9583 41.1498ZM103.827 39.2045C103.827 38.167 103.308 36.4162 101.006 36.4162C98.8985 36.4162 98.0556 38.0697 97.8935 39.2045H103.827Z" fill="white"/>
<path d="M109.436 29.5752H112.808V46.2725H109.436V29.5752Z" fill="white"/>
<path d="M11.5541 28.8295C11.5541 27.3057 11.4892 26.0088 11.4568 24.9389H14.3099L14.2775 26.5924H14.3423C14.8935 25.8143 15.8986 24.6471 18.1357 24.6471C19.8216 24.6471 21.6373 25.4252 22.1884 26.6897H22.2533C22.7396 26.0737 23.1935 25.5873 23.8419 25.2307C24.5552 24.8416 25.3658 24.6471 26.3384 24.6471C28.8673 24.6471 31.3962 26.3006 31.3962 29.9319V36.7729H27.8947V30.483C27.8947 28.7323 26.7923 27.6948 25.463 27.6948C24.5228 27.6948 23.4853 28.2783 23.1935 29.0241C23.0962 29.2834 23.0314 29.7049 23.0314 29.9967V36.7729H19.4326V30.2885C19.4326 28.7323 18.2654 27.7596 16.9685 27.7596C15.931 27.7596 14.9259 28.4405 14.699 29.0565C14.5693 29.3483 14.5369 29.7049 14.5369 29.9967V36.7405H11.4892V28.8295H11.5541Z" fill="white"/>
<path d="M46.9263 30.7424C46.9263 35.0869 43.6517 37.0971 40.2474 37.0971C36.5513 37.0971 33.6982 34.7951 33.6982 30.9694C33.6982 27.1112 36.3892 24.6795 40.4419 24.6795C44.365 24.6471 46.9263 27.176 46.9263 30.7424ZM37.1673 30.8721C37.1673 32.8174 38.2697 34.2764 40.3447 34.2764C42.2251 34.2764 43.4247 32.9147 43.4247 30.8721C43.4247 29.1861 42.5494 27.4678 40.3447 27.4678C38.0103 27.4678 37.1673 29.1861 37.1673 30.8721Z" fill="white"/>
<path d="M49.3904 28.8295C49.3904 27.3057 49.3904 26.1709 49.3904 24.9389H52.6326L52.665 26.3655H52.7299C53.2486 25.5873 54.8049 24.6471 56.9123 24.6471C59.5385 24.6471 61.4838 26.3006 61.4838 29.867V36.8701H58.2416L58.1443 30.2561C58.1443 28.6998 56.9447 27.6948 55.4857 27.6948C54.3834 27.6948 53.2486 28.4729 52.9892 29.1537C52.892 29.3807 52.8271 29.7373 52.8271 30.094L52.6326 36.8377H49.3256V28.8295H49.3904Z" fill="white"/>
</svg>
